<svg width="21" height="22" viewBox="0 0 21 22" fill="none" xmlns="http://www.w3.org/2000/svg">
<path d="M6.19341 5.70945C6.19341 3.32338 8.1277 1.38908 10.5138 1.38908C11.6628 1.38421 12.7664 1.83724 13.5806 2.648C14.3948 3.45875 14.8525 4.56044 14.8525 5.70945M7.5481 10.2129H7.59387M13.3788 10.2129H13.4246M6.33071 20.6111H14.6786C17.7449 20.6111 20.0973 19.5035 19.4292 15.0459L18.6511 9.00463C18.2392 6.78037 16.8205 5.92911 15.5756 5.92911H5.39707C4.13391 5.92911 2.79753 6.84445 2.32155 9.00463L1.54352 15.0459C0.976023 19.0001 3.26435 20.6111 6.33071 20.6111Z" stroke="#9775FA" stroke-width="1.5" stroke-linecap="round" stroke-linejoin="round"/>
</svg>
