<svg width="58" height="59" viewBox="0 0 58 59" fill="none" xmlns="http://www.w3.org/2000/svg">
<path d="M57.5993 29.6009C57.5991 35.2978 55.9131 40.8667 52.7545 45.6034C49.5959 50.3401 45.1066 54.0319 39.8543 56.2118C34.6019 58.3918 28.8225 58.962 23.2467 57.8504C17.671 56.7388 12.5494 53.9953 8.52959 49.9669C4.5098 45.9384 1.77238 40.8059 0.663469 35.2184C-0.445444 29.631 0.123965 23.8394 2.2997 18.5762C4.47543 13.313 8.15976 8.81458 12.8868 5.6497C17.6138 2.48481 23.1712 0.795654 28.8562 0.795837C32.631 0.795959 36.3687 1.54112 39.856 2.98878C43.3433 4.43643 46.512 6.55823 49.181 9.23303C51.8501 11.9078 53.9672 15.0832 55.4116 18.578C56.856 22.0727 57.5994 25.8183 57.5993 29.6009ZM25.5335 44.8475L46.8556 23.4808C47.0281 23.3084 47.1651 23.1035 47.2585 22.878C47.3519 22.6524 47.4 22.4106 47.4 22.1664C47.4 21.9221 47.3519 21.6803 47.2585 21.4548C47.1651 21.2292 47.0281 21.0243 46.8556 20.8519L44.2321 18.2421C44.0603 18.0693 43.8562 17.9322 43.6314 17.8386C43.4066 17.7451 43.1656 17.6969 42.9222 17.6969C42.6788 17.6969 42.4378 17.7451 42.213 17.8386C41.9882 17.9322 41.7841 18.0693 41.6123 18.2421L24.2219 35.6692L16.102 27.5131C15.7535 27.1657 15.2818 26.9707 14.7903 26.9707C14.2987 26.9707 13.8271 27.1657 13.4785 27.5131L10.855 30.1575C10.5084 30.5068 10.3138 30.9794 10.3138 31.472C10.3138 31.9646 10.5084 32.4372 10.855 32.7865L22.9107 44.863C23.0827 45.0359 23.2872 45.1731 23.5123 45.2667C23.7374 45.3603 23.9787 45.4085 24.2224 45.4085C24.4661 45.4085 24.7074 45.3603 24.9325 45.2667C25.1576 45.1731 25.3621 45.0359 25.5341 44.863L25.5335 44.8475Z" fill="#9775FA"/>
</svg>
