<svg width="152" height="98" viewBox="0 0 152 98" fill="none" xmlns="http://www.w3.org/2000/svg">
<path d="M25.1354 35H18.7854L4.78535 5.75C4.98535 8.05 5.13535 10.1833 5.23535 12.15C5.36869 14.0833 5.43535 16.4333 5.43535 19.2V35H0.985352V0.549999H7.18535L21.3354 29.85C21.2354 28.9833 21.102 27.4667 20.9354 25.3C20.7687 23.1333 20.6854 21.15 20.6854 19.35V0.549999H25.1354V35ZM53.4662 35L50.8662 26.35H37.8162L35.2162 35H30.4162L41.4662 0.549999H47.4662L58.4662 35H53.4662ZM38.9662 22.5H49.7162L44.3662 4.5L38.9662 22.5ZM87.9283 35H81.5783L67.5783 5.75C67.7783 8.05 67.9283 10.1833 68.0283 12.15C68.1617 14.0833 68.2283 16.4333 68.2283 19.2V35H63.7783V0.549999H69.9783L84.1283 29.85C84.0283 28.9833 83.895 27.4667 83.7283 25.3C83.5617 23.1333 83.4783 21.15 83.4783 19.35V0.549999H87.9283V35ZM116.259 35L113.659 26.35H100.609L98.0092 35H93.2092L104.259 0.549999H110.259L121.259 35H116.259ZM101.759 22.5H112.509L107.159 4.5L101.759 22.5ZM131.321 0.549999V35H126.571V0.549999H131.321ZM150.071 0.549999L137.021 16.3L151.021 35H145.171L131.571 16.6L144.671 0.549999H150.071ZM51.918 73.5898C51.8789 73.668 51.7943 73.8307 51.6641 74.0781C51.5339 74.3125 51.3646 74.5924 51.1562 74.918C50.9479 75.2305 50.7005 75.569 50.4141 75.9336C50.1276 76.2852 49.8151 76.6107 49.4766 76.9102C49.138 77.2096 48.7734 77.457 48.3828 77.6523C47.9922 77.8477 47.5885 77.9453 47.1719 77.9453C46.4948 77.9453 45.9219 77.8281 45.4531 77.5938C44.9844 77.3464 44.6003 77.0729 44.3008 76.7734C44.0924 77.2292 43.8385 77.6458 43.5391 78.0234C43.2396 78.401 42.9076 78.7266 42.543 79C42.1784 79.2865 41.7878 79.5078 41.3711 79.6641C40.9674 79.8203 40.5508 79.8984 40.1211 79.8984C39.3268 79.8984 38.6497 79.6641 38.0898 79.1953C37.5299 78.7266 37.0612 78.1016 36.6836 77.3203C36.319 76.526 36.0326 75.6081 35.8242 74.5664C35.6159 73.5247 35.4531 72.431 35.3359 71.2852C35.2318 70.1393 35.1667 68.9805 35.1406 67.8086C35.1146 66.6367 35.1016 65.5234 35.1016 64.4688C35.1016 62.4505 35.1602 60.7057 35.2773 59.2344C35.3945 57.75 35.5508 56.4935 35.7461 55.4648C35.9544 54.4232 36.1888 53.5833 36.4492 52.9453C36.7227 52.2943 37.0091 51.793 37.3086 51.4414C37.6081 51.0768 37.9141 50.8294 38.2266 50.6992C38.5391 50.569 38.8451 50.5039 39.1445 50.5039C39.6263 50.5039 40.0495 50.6471 40.4141 50.9336C40.7917 51.2201 41.1042 51.6237 41.3516 52.1445C41.612 52.6523 41.8073 53.2708 41.9375 54C42.0677 54.7292 42.1328 55.5299 42.1328 56.4023C42.1328 57.7956 41.9831 59.2344 41.6836 60.7188C41.3841 62.2031 40.9935 63.6875 40.5117 65.1719C40.043 66.6432 39.5156 68.0951 38.9297 69.5273C38.3438 70.9466 37.7643 72.2943 37.1914 73.5703C37.2695 74.2083 37.3867 74.8203 37.543 75.4062C37.6992 75.9792 37.901 76.4935 38.1484 76.9492C38.3958 77.3919 38.6888 77.75 39.0273 78.0234C39.3659 78.2839 39.7565 78.4141 40.1992 78.4141C40.6419 78.4141 41.0586 78.2904 41.4492 78.043C41.8398 77.7826 42.1784 77.4505 42.4648 77.0469C42.7513 76.6302 42.9727 76.1615 43.1289 75.6406C43.2982 75.1198 43.3828 74.5859 43.3828 74.0391C43.3828 73.6745 43.3438 73.3099 43.2656 72.9453C43.2005 72.5677 43.0898 72.2357 42.9336 71.9492C42.7904 71.6497 42.6081 71.4089 42.3867 71.2266C42.1654 71.0443 41.8984 70.9531 41.5859 70.9531C41.3516 70.9531 41.1693 71.0052 41.0391 71.1094C40.9089 71.2005 40.8112 71.3112 40.7461 71.4414C40.681 71.5586 40.6419 71.6758 40.6289 71.793C40.6159 71.9102 40.6094 71.9883 40.6094 72.0273C40.6094 72.2096 40.6484 72.3919 40.7266 72.5742C40.8047 72.7565 40.9544 72.9193 41.1758 73.0625C41.3971 73.2188 41.5078 73.4336 41.5078 73.707C41.5078 73.9284 41.4297 74.1042 41.2734 74.2344C41.1302 74.3646 40.9674 74.4297 40.7852 74.4297C40.5247 74.4297 40.2904 74.3516 40.082 74.1953C39.8867 74.0391 39.7174 73.8438 39.5742 73.6094C39.431 73.362 39.3203 73.1016 39.2422 72.8281C39.1641 72.5547 39.125 72.3008 39.125 72.0664C39.125 71.6888 39.1901 71.3438 39.3203 71.0312C39.4505 70.7057 39.6263 70.4323 39.8477 70.2109C40.082 69.9766 40.3424 69.8008 40.6289 69.6836C40.9284 69.5534 41.2409 69.4883 41.5664 69.4883C42.1263 69.4883 42.6081 69.6185 43.0117 69.8789C43.4284 70.1393 43.7734 70.4844 44.0469 70.9141C44.3203 71.3438 44.5221 71.832 44.6523 72.3789C44.7826 72.9258 44.8477 73.4792 44.8477 74.0391C44.8477 74.3646 44.8281 74.6836 44.7891 74.9961C44.8411 75.1003 44.9258 75.237 45.043 75.4062C45.1602 75.5755 45.3164 75.7383 45.5117 75.8945C45.707 76.0508 45.9414 76.1875 46.2148 76.3047C46.4883 76.4219 46.8073 76.4805 47.1719 76.4805C47.4844 76.4805 47.8034 76.3633 48.1289 76.1289C48.4674 75.8815 48.7865 75.582 49.0859 75.2305C49.3984 74.8659 49.6849 74.4818 49.9453 74.0781C50.2057 73.6615 50.4206 73.2773 50.5898 72.9258C50.6549 72.7956 50.7461 72.6979 50.8633 72.6328C50.9805 72.5547 51.1107 72.5156 51.2539 72.5156C51.4753 72.5156 51.651 72.5938 51.7812 72.75C51.9245 72.9062 51.9961 73.082 51.9961 73.2773C51.9961 73.3555 51.9701 73.4596 51.918 73.5898ZM36.8203 71.0703C37.263 69.9766 37.7122 68.8307 38.168 67.6328C38.6237 66.4219 39.0339 65.1914 39.3984 63.9414C39.763 62.6914 40.0625 61.4284 40.2969 60.1523C40.5312 58.8763 40.6484 57.6198 40.6484 56.3828C40.6484 55.9141 40.6224 55.4258 40.5703 54.918C40.5312 54.3971 40.4531 53.9219 40.3359 53.4922C40.2188 53.0625 40.056 52.7044 39.8477 52.418C39.6523 52.1315 39.3984 51.9883 39.0859 51.9883C38.9818 51.9883 38.8451 52.0599 38.6758 52.2031C38.5195 52.3333 38.3503 52.5742 38.168 52.9258C37.9857 53.2643 37.8034 53.7396 37.6211 54.3516C37.4388 54.9635 37.2695 55.7448 37.1133 56.6953C36.9701 57.6328 36.8464 58.7656 36.7422 60.0938C36.651 61.4219 36.6055 62.9844 36.6055 64.7812C36.6055 65.3802 36.612 65.9922 36.625 66.6172C36.638 67.2292 36.651 67.8151 36.6641 68.375C36.6901 68.9349 36.7161 69.4492 36.7422 69.918C36.7682 70.3867 36.7943 70.7708 36.8203 71.0703ZM65.707 73.5508C65.6549 73.6549 65.5443 73.8763 65.375 74.2148C65.2188 74.5404 65.0104 74.918 64.75 75.3477C64.5026 75.7773 64.2096 76.2266 63.8711 76.6953C63.5326 77.1641 63.1549 77.5938 62.7383 77.9844C62.3216 78.375 61.8724 78.7005 61.3906 78.9609C60.9089 79.2083 60.401 79.332 59.8672 79.332C59.112 79.332 58.474 79.0911 57.9531 78.6094C57.4453 78.1276 57.0742 77.5221 56.8398 76.793C56.3971 77.5352 55.8698 78.1276 55.2578 78.5703C54.6458 79 54.0339 79.2148 53.4219 79.2148C52.9401 79.2148 52.5039 79.1302 52.1133 78.9609C51.7227 78.7786 51.3906 78.5312 51.1172 78.2188C50.8438 77.8932 50.6289 77.5156 50.4727 77.0859C50.3294 76.6562 50.2578 76.1875 50.2578 75.6797C50.2578 74.6641 50.4271 73.7721 50.7656 73.0039C51.1172 72.2227 51.5599 71.5716 52.0938 71.0508C52.6276 70.5299 53.2135 70.1393 53.8516 69.8789C54.5026 69.6185 55.1276 69.4883 55.7266 69.4883C56.1302 69.4883 56.5013 69.5469 56.8398 69.6641C57.1784 69.7682 57.4648 69.8854 57.6992 70.0156C57.9466 70.1458 58.1354 70.2695 58.2656 70.3867C58.3958 70.4909 58.4674 70.5495 58.4805 70.5625C58.6237 70.7318 58.6953 70.9076 58.6953 71.0898C58.6953 71.2852 58.6237 71.4609 58.4805 71.6172C58.3372 71.7604 58.168 71.832 57.9727 71.832C57.7643 71.832 57.5885 71.7604 57.4453 71.6172C57.4193 71.5911 57.3607 71.5456 57.2695 71.4805C57.1784 71.4023 57.0547 71.3242 56.8984 71.2461C56.7422 71.168 56.5534 71.1029 56.332 71.0508C56.1237 70.9857 55.8828 70.9531 55.6094 70.9531C55.2057 70.9531 54.776 71.0443 54.3203 71.2266C53.8646 71.4089 53.4479 71.6953 53.0703 72.0859C52.6927 72.4635 52.3737 72.9453 52.1133 73.5312C51.8659 74.1042 51.7422 74.7878 51.7422 75.582C51.7422 75.8294 51.7682 76.0833 51.8203 76.3438C51.8724 76.5911 51.9635 76.819 52.0938 77.0273C52.224 77.2357 52.3997 77.4049 52.6211 77.5352C52.8424 77.6654 53.1159 77.7305 53.4414 77.7305C53.6758 77.7305 53.9427 77.6523 54.2422 77.4961C54.5547 77.3398 54.8477 77.099 55.1211 76.7734C55.4076 76.4479 55.6615 76.0378 55.8828 75.543C56.1172 75.0482 56.2799 74.4622 56.3711 73.7852C56.3971 73.6029 56.4818 73.4531 56.625 73.3359C56.7682 73.2057 56.9375 73.1406 57.1328 73.1406C57.3151 73.1406 57.4714 73.2122 57.6016 73.3555C57.7448 73.4987 57.8229 73.6615 57.8359 73.8438C57.849 74.0911 57.875 74.4427 57.9141 74.8984C57.9531 75.3411 58.0378 75.7839 58.168 76.2266C58.3112 76.6693 58.5195 77.0534 58.793 77.3789C59.0664 77.7044 59.444 77.8672 59.9258 77.8672C60.2383 77.8672 60.5443 77.7826 60.8438 77.6133C61.1562 77.444 61.4557 77.2227 61.7422 76.9492C62.0417 76.6628 62.3216 76.3438 62.582 75.9922C62.8555 75.6276 63.1029 75.263 63.3242 74.8984C63.5456 74.5339 63.7409 74.1823 63.9102 73.8438C64.0794 73.5052 64.2227 73.2122 64.3398 72.9648C64.4049 72.8216 64.4961 72.7109 64.6133 72.6328C64.7435 72.5547 64.8802 72.5156 65.0234 72.5156C65.2448 72.5156 65.4206 72.6003 65.5508 72.7695C65.694 72.9258 65.7656 73.0951 65.7656 73.2773C65.7656 73.3685 65.7461 73.4596 65.707 73.5508ZM69.2812 76.5977C69.5026 77.0924 69.8672 77.4896 70.375 77.7891C70.8828 78.0755 71.4557 78.2188 72.0938 78.2188C72.2891 78.2188 72.6081 78.1927 73.0508 78.1406C73.4935 78.0755 74.0013 77.8802 74.5742 77.5547C75.1602 77.2161 75.7786 76.6888 76.4297 75.9727C77.0807 75.2565 77.7122 74.2474 78.3242 72.9453C78.3893 72.8021 78.4805 72.6979 78.5977 72.6328C78.7148 72.5547 78.8451 72.5156 78.9883 72.5156C79.2096 72.5156 79.3854 72.5938 79.5156 72.75C79.6589 72.9062 79.7305 73.0755 79.7305 73.2578C79.7305 73.3359 79.7044 73.4401 79.6523 73.5703C79.1966 74.5208 78.6888 75.3737 78.1289 76.1289C77.569 76.8711 76.9635 77.5091 76.3125 78.043C75.6615 78.5638 74.9779 78.9609 74.2617 79.2344C73.5586 79.5208 72.8359 79.6641 72.0938 79.6641C71.5078 79.6641 70.9544 79.5729 70.4336 79.3906C69.9258 79.2083 69.4831 78.9674 69.1055 78.668C68.7409 78.3555 68.4479 78.0104 68.2266 77.6328C68.0182 77.2422 67.9141 76.8451 67.9141 76.4414C67.9141 76.3893 67.9206 76.3177 67.9336 76.2266C67.9466 76.1354 67.9792 76.0378 68.0312 75.9336C68.0964 75.8164 68.181 75.7122 68.2852 75.6211C68.4023 75.5169 68.5586 75.4323 68.7539 75.3672C69.2878 75.2109 69.776 75.0221 70.2188 74.8008C70.6745 74.5664 71.0651 74.306 71.3906 74.0195C71.7161 73.7331 71.9701 73.4206 72.1523 73.082C72.3346 72.7305 72.4258 72.3529 72.4258 71.9492C72.4258 71.5977 72.3086 71.3112 72.0742 71.0898C71.8398 70.8685 71.5534 70.7578 71.2148 70.7578C70.8633 70.7578 70.5182 70.8815 70.1797 71.1289C69.8411 71.3633 69.5091 71.6823 69.1836 72.0859C68.8711 72.4766 68.5716 72.9323 68.2852 73.4531C67.9987 73.9609 67.7318 74.4948 67.4844 75.0547C67.25 75.6146 67.0417 76.1745 66.8594 76.7344C66.6771 77.2812 66.5273 77.7891 66.4102 78.2578C66.3711 78.401 66.3255 78.5573 66.2734 78.7266C66.2344 78.8958 66.1693 79.0521 66.0781 79.1953C65.987 79.3516 65.8763 79.4753 65.7461 79.5664C65.6159 79.6706 65.4466 79.7227 65.2383 79.7227C65.043 79.7227 64.8542 79.638 64.6719 79.4688C64.4896 79.3125 64.3984 79.0391 64.3984 78.6484C64.3984 78.5703 64.3984 78.2708 64.3984 77.75C64.4115 77.2292 64.4245 76.5521 64.4375 75.7188C64.4505 74.8724 64.4635 73.9089 64.4766 72.8281C64.5026 71.7344 64.5221 70.582 64.5352 69.3711C64.5482 68.1471 64.5677 66.8906 64.5938 65.6016C64.6198 64.3125 64.6393 63.056 64.6523 61.832C64.6654 60.6081 64.6784 59.4492 64.6914 58.3555C64.7174 57.2487 64.737 56.2721 64.75 55.4258C64.763 54.5664 64.7695 53.8698 64.7695 53.3359C64.7826 52.7891 64.7891 52.4635 64.7891 52.3594C64.7891 52.151 64.8672 51.9818 65.0234 51.8516C65.1797 51.7083 65.349 51.6367 65.5312 51.6367C65.7396 51.6367 65.9154 51.7083 66.0586 51.8516C66.2018 51.9818 66.2734 52.1576 66.2734 52.3789C66.2734 52.4049 66.2669 52.6654 66.2539 53.1602C66.2539 53.6419 66.2474 54.293 66.2344 55.1133C66.2214 55.9336 66.2018 56.8906 66.1758 57.9844C66.1628 59.0781 66.1432 60.2435 66.1172 61.4805C66.1042 62.7044 66.0846 63.9674 66.0586 65.2695C66.0456 66.5716 66.026 67.8411 66 69.0781C65.987 70.3151 65.974 71.4935 65.9609 72.6133C65.9479 73.7331 65.9349 74.7227 65.9219 75.582C66.1302 74.918 66.3971 74.2214 66.7227 73.4922C67.0482 72.75 67.4323 72.0664 67.875 71.4414C68.3177 70.8164 68.8125 70.3021 69.3594 69.8984C69.9193 69.4948 70.5378 69.293 71.2148 69.293C71.5924 69.293 71.944 69.3646 72.2695 69.5078C72.5951 69.638 72.875 69.8268 73.1094 70.0742C73.3568 70.3086 73.5456 70.5885 73.6758 70.9141C73.819 71.2396 73.8906 71.5911 73.8906 71.9688C73.8906 72.5547 73.7604 73.0951 73.5 73.5898C73.2396 74.0716 72.8945 74.5078 72.4648 74.8984C72.0352 75.276 71.5404 75.6081 70.9805 75.8945C70.4336 76.181 69.8672 76.4154 69.2812 76.5977ZM80.6875 76.8516C80.9609 77.2292 81.3125 77.5352 81.7422 77.7695C82.1719 77.9909 82.6992 78.1016 83.3242 78.1016C83.9622 78.1016 84.5417 77.9518 85.0625 77.6523C85.5833 77.3398 86.0586 76.9362 86.4883 76.4414C86.918 75.9466 87.3021 75.3932 87.6406 74.7812C87.9792 74.1693 88.2852 73.5573 88.5586 72.9453C88.6237 72.8021 88.7148 72.6979 88.832 72.6328C88.9492 72.5547 89.0794 72.5156 89.2227 72.5156C89.444 72.5156 89.6198 72.5938 89.75 72.75C89.8932 72.9062 89.9648 73.0755 89.9648 73.2578C89.9648 73.3229 89.9583 73.3815 89.9453 73.4336C89.9323 73.4727 89.9128 73.5182 89.8867 73.5703C88.9883 75.5495 88.0052 77.0404 86.9375 78.043C85.8828 79.0456 84.6849 79.5599 83.3438 79.5859C82.4844 79.5859 81.7422 79.4167 81.1172 79.0781C80.4922 78.7526 79.9779 78.3294 79.5742 77.8086C79.1706 77.2747 78.8711 76.6758 78.6758 76.0117C78.4805 75.3477 78.3828 74.6836 78.3828 74.0195C78.3828 73.3555 78.4609 72.7435 78.6172 72.1836C78.7865 71.6237 79.0208 71.1354 79.3203 70.7188C79.6328 70.3021 79.9974 69.9766 80.4141 69.7422C80.8438 69.5078 81.3125 69.3906 81.8203 69.3906C82.1198 69.3906 82.4128 69.4557 82.6992 69.5859C82.9987 69.7031 83.2656 69.8789 83.5 70.1133C83.7344 70.3346 83.9232 70.6081 84.0664 70.9336C84.2096 71.2591 84.2812 71.6302 84.2812 72.0469C84.2812 72.5807 84.1901 73.082 84.0078 73.5508C83.8255 74.0195 83.5716 74.4557 83.2461 74.8594C82.9336 75.263 82.556 75.6341 82.1133 75.9727C81.6706 76.3112 81.1953 76.6042 80.6875 76.8516ZM80.1016 75.582C80.5052 75.4128 80.8698 75.1979 81.1953 74.9375C81.5339 74.6771 81.8203 74.3906 82.0547 74.0781C82.2891 73.7656 82.4714 73.4401 82.6016 73.1016C82.7318 72.75 82.7969 72.3984 82.7969 72.0469C82.7969 71.6562 82.6992 71.3633 82.5039 71.168C82.3086 70.9596 82.0807 70.8555 81.8203 70.8555C81.4688 70.8555 81.1693 70.9531 80.9219 71.1484C80.6745 71.3438 80.4727 71.5977 80.3164 71.9102C80.1602 72.2227 80.043 72.5742 79.9648 72.9648C79.8997 73.3424 79.8672 73.7201 79.8672 74.0977C79.8672 74.332 79.8867 74.5794 79.9258 74.8398C79.9779 75.1003 80.0365 75.3477 80.1016 75.582ZM90.6289 70.9727C90.5768 71.3242 90.5117 71.6562 90.4336 71.9688C90.3555 72.2682 90.2773 72.5352 90.1992 72.7695C90.1341 72.9909 90.0755 73.1732 90.0234 73.3164C89.9714 73.4596 89.9388 73.5378 89.9258 73.5508C89.7956 73.8503 89.5677 74 89.2422 74C89.0599 74 88.8906 73.9349 88.7344 73.8047C88.5781 73.6615 88.5 73.4857 88.5 73.2773C88.5 73.1992 88.513 73.1406 88.5391 73.1016C88.5651 73.0625 88.6042 72.9844 88.6562 72.8672C88.7083 72.75 88.7734 72.5547 88.8516 72.2812C88.9297 72.0078 89.0273 71.5846 89.1445 71.0117C88.9232 71.0117 88.6953 71.0052 88.4609 70.9922C88.2266 70.9792 88.0117 70.9336 87.8164 70.8555C87.6081 70.7773 87.4388 70.6536 87.3086 70.4844C87.1784 70.3151 87.1133 70.0807 87.1133 69.7812C87.1133 69.5599 87.1784 69.2604 87.3086 68.8828C87.4258 68.5052 87.5885 68.1341 87.7969 67.7695C88.0052 67.4049 88.2396 67.0924 88.5 66.832C88.7604 66.5586 89.0208 66.4219 89.2812 66.4219C89.5807 66.4219 89.8216 66.5326 90.0039 66.7539C90.1992 66.9753 90.349 67.2487 90.4531 67.5742C90.5573 67.8867 90.6289 68.2188 90.668 68.5703C90.7201 68.9219 90.7461 69.2279 90.7461 69.4883C90.9674 69.4883 91.1823 69.4883 91.3906 69.4883C91.612 69.4753 91.8203 69.4688 92.0156 69.4688C92.7578 69.4688 93.3242 69.6315 93.7148 69.957C94.1055 70.2826 94.3008 70.8164 94.3008 71.5586C94.3008 71.8581 94.2812 72.1706 94.2422 72.4961C94.2031 72.8216 94.1576 73.1602 94.1055 73.5117C94.0534 73.8503 94.0078 74.1888 93.9688 74.5273C93.9297 74.8659 93.9102 75.1979 93.9102 75.5234C93.9102 75.9922 93.9753 76.3828 94.1055 76.6953C94.2357 76.9948 94.3984 77.2357 94.5938 77.418C94.7891 77.6003 94.9974 77.7305 95.2188 77.8086C95.4401 77.8737 95.6419 77.9062 95.8242 77.9062C96.3841 77.9062 96.9115 77.724 97.4062 77.3594C97.901 76.9948 98.3568 76.5586 98.7734 76.0508C99.1901 75.5299 99.5612 74.9831 99.8867 74.4102C100.225 73.8372 100.505 73.3359 100.727 72.9062C100.792 72.7891 100.883 72.6979 101 72.6328C101.117 72.5677 101.241 72.5352 101.371 72.5352C101.605 72.5352 101.788 72.6133 101.918 72.7695C102.048 72.9128 102.113 73.0755 102.113 73.2578C102.113 73.388 102.087 73.5052 102.035 73.6094C101.736 74.1432 101.384 74.7487 100.98 75.4258C100.59 76.0898 100.141 76.7148 99.6328 77.3008C99.125 77.8867 98.5521 78.3815 97.9141 78.7852C97.2891 79.1888 96.599 79.3906 95.8438 79.3906C95.375 79.3906 94.9323 79.2995 94.5156 79.1172C94.099 78.9479 93.7344 78.7005 93.4219 78.375C93.1224 78.0365 92.8815 77.6263 92.6992 77.1445C92.5169 76.6497 92.4258 76.0964 92.4258 75.4844C92.4258 74.8333 92.4909 74.1888 92.6211 73.5508C92.7513 72.8997 92.8164 72.2812 92.8164 71.6953C92.8164 71.4479 92.7578 71.2656 92.6406 71.1484C92.5365 71.0182 92.2956 70.9531 91.918 70.9531C91.7357 70.9531 91.5339 70.9531 91.3125 70.9531C91.1042 70.9531 90.8763 70.9596 90.6289 70.9727ZM89.3203 69.5273C89.3203 69.4362 89.3138 69.319 89.3008 69.1758C89.3008 69.0195 89.2878 68.8698 89.2617 68.7266C89.2487 68.5833 89.2227 68.4596 89.1836 68.3555C89.1576 68.2513 89.125 68.1992 89.0859 68.1992C89.0469 68.1992 88.9948 68.2513 88.9297 68.3555C88.8776 68.4466 88.819 68.5638 88.7539 68.707C88.6888 68.8372 88.6302 68.9805 88.5781 69.1367C88.526 69.293 88.487 69.4232 88.4609 69.5273H89.3203ZM107.992 79.2734C108.448 78.8177 108.91 78.3555 109.379 77.8867C109.848 77.4049 110.303 76.9036 110.746 76.3828C111.189 75.862 111.599 75.3216 111.977 74.7617C112.367 74.1888 112.712 73.5833 113.012 72.9453C113.077 72.8021 113.168 72.6979 113.285 72.6328C113.402 72.5547 113.533 72.5156 113.676 72.5156C113.897 72.5156 114.073 72.5938 114.203 72.75C114.346 72.9062 114.418 73.082 114.418 73.2773C114.418 73.3815 114.398 73.4792 114.359 73.5703C113.956 74.4167 113.493 75.1914 112.973 75.8945C112.452 76.5977 111.905 77.2682 111.332 77.9062C110.759 78.5312 110.18 79.1367 109.594 79.7227C109.008 80.3216 108.448 80.9206 107.914 81.5195C107.862 82.418 107.862 83.3164 107.914 84.2148C107.966 85.1263 107.992 86.0898 107.992 87.1055C107.992 87.9388 107.966 88.7721 107.914 89.6055C107.862 90.4388 107.777 91.2331 107.66 91.9883C107.543 92.7565 107.38 93.4727 107.172 94.1367C106.977 94.8008 106.723 95.3737 106.41 95.8555C106.098 96.3503 105.733 96.7344 105.316 97.0078C104.9 97.2943 104.411 97.4375 103.852 97.4375C102.927 97.4375 102.217 97.1185 101.723 96.4805C101.228 95.8424 100.98 94.9505 100.98 93.8047C100.98 93.1797 101.046 92.5091 101.176 91.793C101.319 91.0768 101.514 90.3346 101.762 89.5664C102.009 88.8112 102.302 88.043 102.641 87.2617C102.992 86.4805 103.37 85.7188 103.773 84.9766C104.177 84.2344 104.607 83.5247 105.062 82.8477C105.518 82.1836 105.98 81.5781 106.449 81.0312C106.475 80.4062 106.501 79.7552 106.527 79.0781C106.566 78.4141 106.605 77.7956 106.645 77.2227C106.306 77.8216 105.883 78.3034 105.375 78.668C104.88 79.0326 104.333 79.2148 103.734 79.2148C102.745 79.2148 101.97 78.8828 101.41 78.2188C100.85 77.5547 100.57 76.6432 100.57 75.4844C100.57 74.638 100.648 73.8698 100.805 73.1797C100.974 72.4766 101.15 71.8776 101.332 71.3828C101.527 70.875 101.703 70.4909 101.859 70.2305C102.016 69.957 102.094 69.8268 102.094 69.8398C102.237 69.6185 102.439 69.5078 102.699 69.5078C102.921 69.5078 103.096 69.5859 103.227 69.7422C103.37 69.8854 103.441 70.0547 103.441 70.25C103.441 70.3932 103.402 70.5234 103.324 70.6406C103.337 70.6276 103.272 70.7383 103.129 70.9727C102.999 71.194 102.849 71.5195 102.68 71.9492C102.523 72.3789 102.374 72.8932 102.23 73.4922C102.1 74.0911 102.035 74.7487 102.035 75.4648C102.035 76.181 102.165 76.7409 102.426 77.1445C102.686 77.5482 103.109 77.75 103.695 77.75C104.438 77.75 105.108 77.2031 105.707 76.1094C106.306 75.0026 106.814 73.401 107.23 71.3047C107.257 71.1354 107.335 70.9987 107.465 70.8945C107.595 70.7773 107.751 70.7188 107.934 70.7188C108.142 70.7188 108.318 70.7904 108.461 70.9336C108.604 71.0768 108.676 71.2526 108.676 71.4609C108.676 71.5 108.65 71.7344 108.598 72.1641C108.546 72.5807 108.48 73.1406 108.402 73.8438C108.337 74.5469 108.266 75.3672 108.188 76.3047C108.109 77.2292 108.044 78.2188 107.992 79.2734ZM106.43 83.4141C105.844 84.2604 105.303 85.1523 104.809 86.0898C104.327 87.0273 103.91 87.9583 103.559 88.8828C103.207 89.8073 102.934 90.6927 102.738 91.5391C102.543 92.3854 102.445 93.1406 102.445 93.8047C102.445 94.4818 102.556 95.0091 102.777 95.3867C102.999 95.7773 103.35 95.9727 103.832 95.9727C104.262 95.9727 104.639 95.7578 104.965 95.3281C105.303 94.9115 105.583 94.3125 105.805 93.5312C106.039 92.75 106.215 91.7995 106.332 90.6797C106.449 89.5729 106.508 88.3294 106.508 86.9492C106.508 86.3893 106.495 85.8229 106.469 85.25C106.456 84.6771 106.443 84.0651 106.43 83.4141Z" fill="#9775FA"/>
</svg>
